<?xml version="1.0" encoding="UTF-8" standalone="no"?>
<!DOCTYPE svg PUBLIC "-//W3C//DTD SVG 1.1//EN" "http://www.w3.org/Graphics/SVG/1.1/DTD/svg11.dtd">
<svg id="svg-brand" width="100%" height="100%" viewBox="0 0 1314 210" version="1.1" xmlns="http://www.w3.org/2000/svg" xmlns:xlink="http://www.w3.org/1999/xlink" xml:space="preserve" xmlns:serif="http://www.serif.com/" style="fill-rule:evenodd;clip-rule:evenodd;stroke-linejoin:round;stroke-miterlimit:2;">
    <g transform="matrix(1,0,0,1,-321.441,-295.309)">
        <g transform="matrix(0.825218,0,0,0.825218,109.579,45.1827)">
            <path d="M256.735,314.823L295.918,314.823L295.918,498.4L256.735,498.4L256.735,314.823ZM1147.73,498.4C1136.93,468.731 1120.72,424.308 1099.12,365.132C1096.54,394.801 1092.67,439.223 1087.51,498.4L1051.95,498.4C1055.82,457.605 1061.63,396.332 1069.37,314.582L1118.95,314.582C1129.27,343.928 1144.91,387.948 1165.87,446.641C1176.19,417.294 1191.75,373.274 1212.55,314.582L1262.38,314.582C1266.25,355.538 1272.05,416.81 1279.79,498.4L1244,498.4C1241.58,468.731 1237.79,424.308 1232.63,365.132C1221.66,394.801 1205.38,439.223 1183.77,498.4L1147.73,498.4ZM428.702,436.261C428.706,387.291 454.777,360.066 502.633,360.066C503.798,360.064 527.479,360.699 552.269,366.329L552.269,498.314L515.767,498.314L515.767,476.713C504.475,497.044 490.771,502.028 475.75,502.028C460.728,502.028 448.825,495.528 440.153,482.406C432.52,471.03 428.704,455.652 428.702,436.271L428.702,436.261ZM475.859,402.852C469.378,410.367 464.83,421.134 464.83,438.767C464.83,456.401 473.516,471.903 487.475,471.631C500.956,471.369 515.496,452.326 515.764,402.25C515.776,399.821 515.752,397.32 515.696,394.744C512.353,393.488 506.158,391.755 499.196,391.756C491.273,391.757 482.539,395.106 475.859,402.852ZM1485.4,436.261C1485.41,387.291 1511.48,360.066 1559.34,360.066C1560.5,360.064 1584.18,360.699 1608.97,366.329L1608.97,498.314L1572.47,498.314L1572.47,476.713C1561.18,497.044 1547.47,502.028 1532.45,502.028C1517.43,502.028 1505.53,495.528 1496.86,482.406C1489.22,471.03 1485.41,455.652 1485.4,436.271L1485.4,436.261ZM1532.56,402.852C1526.08,410.367 1521.53,421.134 1521.53,438.767C1521.53,456.401 1530.22,471.903 1544.18,471.631C1557.66,471.369 1572.2,452.326 1572.47,402.25C1572.48,399.821 1572.45,397.32 1572.4,394.744C1569.06,393.488 1562.86,391.755 1555.9,391.756C1547.98,391.757 1539.24,395.106 1532.56,402.852ZM405.184,393.113C393.88,387.749 382.864,385.067 372.136,385.067C357.959,385.067 350.295,390.336 350.295,399.148C350.295,406.487 355.039,411.069 373.285,416.391C373.285,416.391 399.156,423.277 409.638,433.921C415.864,440.243 418.978,448.577 418.978,458.922C418.978,485.36 397.712,502.028 363.227,502.028C344.644,502.028 329.221,498.963 316.96,492.832L324.432,467.543C335.543,472.908 348.092,476.739 361.503,476.739C377.404,476.739 385.355,471.662 385.355,461.508C385.355,449.069 367.676,446.673 350.295,440.717C333.489,434.958 316.96,425.871 316.96,401.16C316.96,377.115 337.975,360.066 368.975,360.066C384.684,360.066 399.723,362.939 412.368,368.687L405.184,393.113ZM765.554,502.171C735.632,502.171 719.909,480.282 719.909,453.373L719.909,363.922L756.411,363.922L756.411,449.85C756.411,463.808 763.653,471.334 775.742,472.291C781.834,472.774 805.227,468.088 806.515,443.633L806.515,363.922L843.016,363.922L843.016,498.462L806.515,498.462L806.515,480.844C797.443,493.007 785.328,502.171 765.554,502.171ZM958.736,462.154L974.15,488.758C962.785,497.447 948.148,502.257 931.296,502.257C890.633,502.257 862.853,474.271 862.853,431.276C862.853,388.313 890.618,360.294 931.296,360.294C962.837,360.294 985.343,381.668 985.343,404.33C985.343,428.678 959.639,448.423 928.048,448.423C918.409,448.423 909.322,446.587 901.346,443.345C905.494,463.558 918.052,471.271 931.296,471.569C941.308,471.793 951.279,468.213 958.736,462.154ZM920.899,428.309C935.131,428.063 952.164,420.846 952.164,405.221C952.164,396.603 941.448,392.131 931.296,392.131C914.196,392.131 902.494,404.713 900.509,424.779C907.491,427.258 914.444,428.421 920.899,428.309ZM1724.69,462.154L1740.1,488.758C1728.74,497.447 1714.1,502.257 1697.25,502.257C1656.59,502.257 1628.81,474.271 1628.81,431.276C1628.81,388.313 1656.57,360.294 1697.25,360.294C1728.79,360.294 1751.3,381.668 1751.3,404.33C1751.3,428.678 1725.59,448.423 1694,448.423C1684.36,448.423 1675.27,446.587 1667.3,443.345C1671.45,463.558 1684.01,471.271 1697.25,471.569C1707.26,471.793 1717.23,468.213 1724.69,462.154ZM1686.85,428.309C1701.08,428.063 1718.12,420.846 1718.12,405.221C1718.12,396.603 1707.4,392.131 1697.25,392.131C1680.15,392.131 1668.45,404.713 1666.46,424.779C1673.44,427.258 1680.4,428.421 1686.85,428.309ZM1770.78,458.663L1771.04,304.874L1807.54,304.874L1807.28,456.835C1807.28,469.633 1817.62,473.637 1832.8,467.205L1848.73,494.751C1836.92,499.602 1826.15,502.028 1816.42,502.028C1789.21,502.028 1770.78,484.839 1770.78,458.663ZM1319.42,303.103C1330.52,303.103 1339.53,312.113 1339.53,323.211C1339.53,334.308 1330.52,343.318 1319.42,343.318C1308.33,343.318 1299.32,334.308 1299.32,323.211C1299.32,312.113 1308.33,303.103 1319.42,303.103ZM1337.68,363.865L1337.68,498.4L1301.17,498.4L1301.17,363.865L1337.68,363.865ZM1465.92,398.653L1399.37,466.09L1465.92,466.09L1465.92,498.4L1356.46,498.4L1356.46,463.612L1423.02,396.175L1356.46,396.175L1356.46,363.865L1465.92,363.865L1465.92,398.653ZM571.672,436.49C571.676,387.52 597.747,360.294 645.603,360.294C646.768,360.293 670.449,360.928 695.239,366.558L695.239,557.448L658.737,557.448L658.737,476.942C647.445,497.272 633.741,502.257 618.719,502.257C603.698,502.257 591.794,495.757 583.123,482.635C575.49,471.259 571.673,455.88 571.672,436.5L571.672,436.49ZM618.829,403.081C612.348,410.596 607.8,421.362 607.8,438.996C607.8,456.63 616.486,472.131 630.445,471.86C643.926,471.598 658.466,452.555 658.733,402.478C658.746,400.05 658.722,397.549 658.666,394.973C655.322,393.717 649.128,391.983 642.166,391.984C634.243,391.985 625.509,395.335 618.829,403.081Z"/>
        </g>
    </g>
</svg>
