<?xml version="1.0" encoding="UTF-8" standalone="no"?>
<!DOCTYPE svg PUBLIC "-//W3C//DTD SVG 1.1//EN" "http://www.w3.org/Graphics/SVG/1.1/DTD/svg11.dtd">
<svg id="svg-brand" width="100%" height="100%" viewBox="0 0 325 44" version="1.1" xmlns="http://www.w3.org/2000/svg" xmlns:xlink="http://www.w3.org/1999/xlink" xml:space="preserve" xmlns:serif="http://www.serif.com/" style="fill-rule:evenodd;clip-rule:evenodd;stroke-linejoin:round;stroke-miterlimit:2;">
    <g transform="matrix(0.139864,0,0,0.17483,-309.54,2451.98)">
        <g transform="matrix(4.65664,0,0,3.72531,-3638.21,-34003.5)">
            <rect x="1256.6" y="5367.26" width="13.171" height="51.178" style="fill-rule:nonzero;"/>
        </g>
        <g transform="matrix(4.65664,0,0,3.72531,-3638.21,-34003.5)">
            <path d="M1308.91,5406.4C1308.91,5409.51 1308.04,5412.06 1306.31,5414.04C1304.58,5416.02 1302.26,5417.46 1299.35,5418.36C1296.44,5419.27 1293.19,5419.66 1289.6,5419.53C1286.01,5419.41 1282.36,5418.82 1278.65,5417.76L1278.65,5406.02C1280.76,5406.98 1282.87,5407.72 1284.97,5408.24C1287.08,5408.77 1288.99,5409.08 1290.69,5409.18C1292.4,5409.28 1293.78,5409.15 1294.83,5408.77C1295.89,5408.39 1296.41,5407.75 1296.41,5406.85C1296.41,5406.15 1295.97,5405.6 1295.1,5405.19C1294.22,5404.79 1293.08,5404.43 1291.67,5404.1C1290.27,5403.78 1288.77,5403.38 1287.19,5402.9C1285.61,5402.42 1284.12,5401.74 1282.71,5400.87C1281.31,5399.99 1280.17,5398.81 1279.29,5397.33C1278.41,5395.85 1277.97,5393.93 1277.97,5391.57C1277.97,5388.76 1278.79,5386.37 1280.42,5384.38C1282.05,5382.4 1284.25,5380.9 1287.01,5379.87C1289.77,5378.84 1292.85,5378.33 1296.26,5378.33C1299.67,5378.33 1303.16,5378.9 1306.72,5380.06L1306.72,5391.8C1303.91,5390.44 1301.28,5389.54 1298.82,5389.09C1296.36,5388.64 1294.38,5388.57 1292.88,5388.9C1291.37,5389.23 1290.62,5389.92 1290.62,5390.97C1290.62,5391.67 1291.06,5392.21 1291.93,5392.59C1292.81,5392.96 1293.94,5393.3 1295.32,5393.6C1296.7,5393.9 1298.18,5394.31 1299.76,5394.81C1301.34,5395.31 1302.82,5396 1304.2,5396.88C1305.58,5397.76 1306.71,5398.96 1307.59,5400.49C1308.47,5402.02 1308.91,5403.99 1308.91,5406.4Z" style="fill-rule:nonzero;"/>
        </g>
        <g transform="matrix(4.65664,0,0,3.72531,-3638.21,-34003.5)">
            <path d="M1340.89,5418.44L1340.89,5416.18C1339.64,5417.24 1338.22,5418.05 1336.64,5418.63C1335.06,5419.2 1333.37,5419.49 1331.56,5419.49C1329,5419.49 1326.59,5419.01 1324.34,5418.03C1322.08,5417.05 1320.08,5415.64 1318.35,5413.81C1316.62,5411.98 1315.27,5409.81 1314.29,5407.3C1313.31,5404.79 1312.82,5402.01 1312.82,5398.95C1312.82,5395.84 1313.31,5393.03 1314.29,5390.52C1315.27,5388.01 1316.62,5385.86 1318.35,5384.08C1320.08,5382.3 1322.08,5380.92 1324.34,5379.94C1326.59,5378.97 1328.98,5378.48 1331.49,5378.48C1333.29,5378.48 1335,5378.77 1336.6,5379.34C1338.21,5379.92 1339.64,5380.71 1340.89,5381.71L1340.89,5379.53L1353.31,5379.53L1353.31,5418.44L1340.89,5418.44ZM1333.22,5408.51C1335.62,5408.51 1337.56,5407.63 1339.01,5405.87C1340.47,5404.11 1341.19,5401.81 1341.19,5398.95C1341.19,5396.09 1340.47,5393.79 1339.01,5392.06C1337.56,5390.33 1335.62,5389.46 1333.22,5389.46C1330.76,5389.46 1328.81,5390.32 1327.38,5392.02C1325.95,5393.73 1325.24,5396.04 1325.24,5398.95C1325.24,5401.86 1325.95,5404.18 1327.38,5405.91C1328.81,5407.64 1330.76,5408.51 1333.22,5408.51Z" style="fill-rule:nonzero;"/>
        </g>
        <g transform="matrix(4.65664,0,0,3.72531,-3638.21,-34003.5)">
            <path d="M1387.55,5430.48L1387.55,5416.18C1386.3,5417.24 1384.88,5418.05 1383.3,5418.63C1381.72,5419.2 1380.03,5419.49 1378.22,5419.49C1375.66,5419.49 1373.26,5418.99 1371,5417.99C1368.74,5416.98 1366.75,5415.57 1365.01,5413.74C1363.28,5411.9 1361.93,5409.73 1360.95,5407.23C1359.97,5404.72 1359.48,5401.96 1359.48,5398.95C1359.48,5395.89 1359.97,5393.1 1360.95,5390.59C1361.93,5388.09 1363.28,5385.93 1365.01,5384.12C1366.75,5382.32 1368.74,5380.92 1371,5379.94C1373.26,5378.97 1375.64,5378.48 1378.15,5378.48C1379.95,5378.48 1381.66,5378.77 1383.26,5379.34C1384.87,5379.92 1386.3,5380.71 1387.55,5381.71L1387.55,5379.53L1399.97,5379.53L1399.97,5430.48C1397.97,5430.48 1395.91,5430.48 1393.8,5430.48C1391.69,5430.48 1389.61,5430.48 1387.55,5430.48ZM1379.88,5408.51C1382.29,5408.51 1384.22,5407.63 1385.67,5405.87C1387.13,5404.11 1387.86,5401.81 1387.86,5398.95C1387.86,5396.09 1387.13,5393.79 1385.67,5392.06C1384.22,5390.33 1382.29,5389.46 1379.88,5389.46C1377.42,5389.46 1375.48,5390.32 1374.05,5392.02C1372.62,5393.73 1371.9,5396.04 1371.9,5398.95C1371.9,5401.86 1372.62,5404.18 1374.05,5405.91C1375.48,5407.64 1377.42,5408.51 1379.88,5408.51Z" style="fill-rule:nonzero;"/>
        </g>
        <g transform="matrix(4.65664,0,0,3.72531,-3638.21,-34003.5)">
            <path d="M1444.6,5379.53L1444.6,5418.44L1432.18,5418.44L1432.18,5416.48C1430.83,5417.44 1429.31,5418.18 1427.63,5418.7C1425.95,5419.23 1424.13,5419.49 1422.17,5419.49C1419.32,5419.49 1416.79,5418.84 1414.61,5417.54C1412.43,5416.23 1410.72,5414.35 1409.49,5411.89C1408.26,5409.43 1407.65,5406.52 1407.65,5403.16L1407.65,5379.53L1420.07,5379.53L1420.07,5401.51C1420.07,5403.51 1420.53,5405.13 1421.46,5406.36C1422.39,5407.59 1423.86,5408.2 1425.86,5408.2C1427.87,5408.2 1429.42,5407.63 1430.53,5406.47C1431.63,5405.32 1432.18,5403.66 1432.18,5401.51L1432.18,5379.53L1444.6,5379.53Z" style="fill-rule:nonzero;"/>
        </g>
        <g transform="matrix(4.65664,0,0,3.72531,-3638.21,-34003.5)">
            <path d="M1486.37,5416.63C1482.91,5418.09 1479.47,5418.99 1476.06,5419.34C1472.65,5419.69 1469.43,5419.51 1466.39,5418.78C1463.36,5418.05 1460.66,5416.81 1458.3,5415.05C1455.94,5413.3 1454.1,5411.06 1452.77,5408.36C1451.44,5405.65 1450.77,5402.51 1450.77,5398.95C1450.77,5395.99 1451.26,5393.27 1452.24,5390.78C1453.22,5388.3 1454.61,5386.11 1456.42,5384.23C1458.23,5382.35 1460.36,5380.9 1462.82,5379.87C1465.27,5378.84 1467.96,5378.33 1470.87,5378.33C1473.48,5378.33 1475.84,5378.75 1477.94,5379.61C1480.05,5380.46 1481.88,5381.65 1483.44,5383.18C1484.99,5384.71 1486.25,5386.53 1487.2,5388.64C1488.15,5390.74 1488.76,5393.05 1489.01,5395.56C1489.26,5398.07 1489.11,5400.73 1488.56,5403.54L1463.72,5403.54C1464.67,5405.44 1466.27,5406.8 1468.5,5407.6C1470.73,5408.4 1473.39,5408.66 1476.48,5408.36C1479.56,5408.05 1482.86,5407.25 1486.37,5405.95L1486.37,5416.63ZM1470.57,5389.46C1469.11,5389.46 1467.77,5389.87 1466.54,5390.67C1465.31,5391.47 1464.37,5392.7 1463.72,5394.36L1477.34,5394.36C1476.74,5392.65 1475.85,5391.41 1474.67,5390.63C1473.49,5389.85 1472.12,5389.46 1470.57,5389.46Z" style="fill-rule:nonzero;"/>
        </g>
        <g transform="matrix(4.65664,0,0,3.72531,-3638.21,-34003.5)">
            <path d="M1512.11,5418.44L1512.11,5367.26L1530.93,5367.26C1532.38,5372.38 1533.83,5377.56 1535.26,5382.8C1536.68,5388.05 1538.1,5393.23 1539.51,5398.35C1540.91,5393.23 1542.33,5388.05 1543.76,5382.8C1545.19,5377.56 1546.61,5372.38 1548.01,5367.26L1566.6,5367.26C1566.65,5375.69 1566.7,5384.22 1566.75,5392.85C1566.8,5401.48 1566.85,5410.01 1566.9,5418.44L1554.18,5418.44L1554.18,5383.74C1552.68,5389.46 1551.15,5395.25 1549.59,5401.09C1548.04,5406.94 1546.51,5412.72 1545,5418.44L1533.56,5418.44C1532.06,5412.82 1530.55,5407.14 1529.05,5401.39C1527.54,5395.65 1526.04,5389.97 1524.53,5384.35L1524.53,5418.44L1512.11,5418.44Z" style="fill-rule:nonzero;"/>
        </g>
        <g transform="matrix(3.71181,0,0,2.96945,-2143,-29940.7)">
            <path d="M1582.56,5375.09C1581.1,5375.09 1579.79,5374.74 1578.61,5374.04C1577.43,5373.33 1576.49,5372.4 1575.78,5371.25C1575.08,5370.1 1574.73,5368.82 1574.73,5367.41C1574.73,5366.01 1575.08,5364.74 1575.78,5363.61C1576.49,5362.48 1577.43,5361.57 1578.61,5360.86C1579.79,5360.16 1581.1,5359.81 1582.56,5359.81C1583.96,5359.81 1585.25,5360.16 1586.43,5360.86C1587.61,5361.57 1588.55,5362.48 1589.26,5363.61C1589.96,5364.74 1590.31,5366.01 1590.31,5367.41C1590.31,5368.82 1589.96,5370.1 1589.26,5371.25C1588.55,5372.4 1587.61,5373.33 1586.43,5374.04C1585.25,5374.74 1583.96,5375.09 1582.56,5375.09Z"/>
        </g>
        <g transform="matrix(4.65664,0,0,3.72531,-3638.21,-34003.5)">
            <rect x="1576.31" y="5379.53" width="12.418" height="38.91"/>
        </g>
        <g transform="matrix(4.65664,0,0,3.72531,-3638.21,-34003.5)">
            <path d="M1596.25,5418.44L1596.25,5407.75C1598.86,5404.84 1609.3,5393.2 1611.91,5390.29L1596.25,5390.29L1596.25,5379.53L1627.11,5379.53L1627.11,5390.29C1624.5,5393.2 1614.07,5404.84 1611.46,5407.75L1627.11,5407.75L1627.11,5418.44L1596.25,5418.44Z" style="fill-rule:nonzero;"/>
        </g>
        <g transform="matrix(4.65664,0,0,3.72531,-3638.21,-34003.5)">
            <path d="M1660.23,5418.44L1660.23,5416.18C1658.97,5417.24 1657.56,5418.05 1655.97,5418.63C1654.39,5419.2 1652.7,5419.49 1650.89,5419.49C1648.34,5419.49 1645.93,5419.01 1643.67,5418.03C1641.41,5417.05 1639.42,5415.64 1637.69,5413.81C1635.95,5411.98 1634.6,5409.81 1633.62,5407.3C1632.64,5404.79 1632.15,5402.01 1632.15,5398.95C1632.15,5395.84 1632.64,5393.03 1633.62,5390.52C1634.6,5388.01 1635.95,5385.86 1637.69,5384.08C1639.42,5382.3 1641.41,5380.92 1643.67,5379.94C1645.93,5378.97 1648.31,5378.48 1650.82,5378.48C1652.62,5378.48 1654.33,5378.77 1655.94,5379.34C1657.54,5379.92 1658.97,5380.71 1660.23,5381.71L1660.23,5379.53L1672.64,5379.53L1672.64,5418.44L1660.23,5418.44ZM1652.55,5408.51C1654.96,5408.51 1656.89,5407.63 1658.35,5405.87C1659.8,5404.11 1660.53,5401.81 1660.53,5398.95C1660.53,5396.09 1659.8,5393.79 1658.35,5392.06C1656.89,5390.33 1654.96,5389.46 1652.55,5389.46C1650.09,5389.46 1648.15,5390.32 1646.72,5392.02C1645.29,5393.73 1644.57,5396.04 1644.57,5398.95C1644.57,5401.86 1645.29,5404.18 1646.72,5405.91C1648.15,5407.64 1650.09,5408.51 1652.55,5408.51Z" style="fill-rule:nonzero;"/>
        </g>
        <g transform="matrix(4.65664,0,0,3.72531,-3638.21,-34003.5)">
            <path d="M1714.41,5416.63C1710.95,5418.09 1707.52,5418.99 1704.1,5419.34C1700.69,5419.69 1697.47,5419.51 1694.43,5418.78C1691.4,5418.05 1688.7,5416.81 1686.34,5415.05C1683.98,5413.3 1682.14,5411.06 1680.81,5408.36C1679.48,5405.65 1678.82,5402.51 1678.82,5398.95C1678.82,5395.99 1679.31,5393.27 1680.28,5390.78C1681.26,5388.3 1682.65,5386.11 1684.46,5384.23C1686.27,5382.35 1688.4,5380.9 1690.86,5379.87C1693.32,5378.84 1696,5378.33 1698.91,5378.33C1701.52,5378.33 1703.88,5378.75 1705.99,5379.61C1708.09,5380.46 1709.92,5381.65 1711.48,5383.18C1713.04,5384.71 1714.29,5386.53 1715.24,5388.64C1716.2,5390.74 1716.8,5393.05 1717.05,5395.56C1717.3,5398.07 1717.15,5400.73 1716.6,5403.54L1691.76,5403.54C1692.71,5405.44 1694.31,5406.8 1696.54,5407.6C1698.77,5408.4 1701.43,5408.66 1704.52,5408.36C1707.6,5408.05 1710.9,5407.25 1714.41,5405.95L1714.41,5416.63ZM1698.61,5389.46C1697.15,5389.46 1695.81,5389.87 1694.58,5390.67C1693.35,5391.47 1692.41,5392.7 1691.76,5394.36L1705.38,5394.36C1704.78,5392.65 1703.89,5391.41 1702.71,5390.63C1701.53,5389.85 1700.16,5389.46 1698.61,5389.46Z" style="fill-rule:nonzero;"/>
        </g>
        <g transform="matrix(4.65664,0,0,3.72531,-3638.21,-34003.5)">
            <rect x="1723.97" y="5363.5" width="12.418" height="54.941" style="fill-rule:nonzero;"/>
        </g>
        <g transform="matrix(6.11257,0,0,4.89006,-30610.7,-36139.6)">
            <path d="M5745.25,4532.08C5744.34,4532.08 5743.53,4531.89 5742.84,4531.49C5742.14,4531.1 5741.59,4530.55 5741.2,4529.85C5740.81,4529.16 5740.61,4528.35 5740.61,4527.44C5740.61,4526.53 5740.81,4525.72 5741.2,4525.03C5741.59,4524.33 5742.14,4523.79 5742.84,4523.4C5743.53,4523 5744.34,4522.81 5745.25,4522.81C5746.17,4522.81 5746.97,4523 5747.66,4523.4C5748.36,4523.79 5748.9,4524.33 5749.3,4525.03C5749.69,4525.72 5749.89,4526.53 5749.89,4527.44C5749.89,4528.35 5749.69,4529.16 5749.3,4529.85C5748.9,4530.55 5748.36,4531.1 5747.66,4531.49C5746.97,4531.89 5746.17,4532.08 5745.25,4532.08ZM5745.25,4531.17C5745.96,4531.17 5746.58,4531.01 5747.12,4530.7C5747.66,4530.38 5748.08,4529.94 5748.38,4529.38C5748.68,4528.82 5748.83,4528.17 5748.83,4527.44C5748.83,4526.71 5748.68,4526.06 5748.38,4525.5C5748.08,4524.94 5747.66,4524.51 5747.12,4524.19C5746.58,4523.87 5745.96,4523.71 5745.25,4523.71C5744.55,4523.71 5743.93,4523.87 5743.38,4524.19C5742.84,4524.51 5742.42,4524.94 5742.12,4525.5C5741.81,4526.06 5741.66,4526.71 5741.66,4527.44C5741.66,4528.17 5741.81,4528.82 5742.12,4529.38C5742.42,4529.94 5742.84,4530.38 5743.38,4530.7C5743.93,4531.01 5744.55,4531.17 5745.25,4531.17ZM5743.69,4529.86L5743.69,4524.92C5743.8,4524.91 5743.93,4524.91 5744.07,4524.91L5744.96,4524.91C5745.11,4524.91 5745.24,4524.91 5745.35,4524.92C5745.91,4524.94 5746.34,4525.08 5746.61,4525.33C5746.89,4525.59 5747.03,4525.93 5747.03,4526.36C5747.03,4526.7 5746.94,4527 5746.77,4527.26C5746.6,4527.52 5746.34,4527.69 5745.99,4527.78C5746.13,4527.88 5746.24,4527.99 5746.33,4528.13C5746.42,4528.27 5746.56,4528.5 5746.76,4528.82C5746.89,4529.04 5746.98,4529.2 5747.04,4529.3C5747.1,4529.4 5747.15,4529.48 5747.17,4529.53C5747.2,4529.58 5747.22,4529.62 5747.24,4529.66C5747.26,4529.7 5747.3,4529.77 5747.35,4529.86L5746.12,4529.86L5745.29,4528.3C5745.2,4528.13 5745.12,4528.02 5745.04,4527.99C5744.96,4527.95 5744.85,4527.94 5744.72,4527.94L5744.72,4529.86L5743.69,4529.86ZM5744.72,4527.11L5745.18,4527.11C5745.43,4527.11 5745.63,4527.04 5745.77,4526.92C5745.92,4526.79 5745.99,4526.62 5745.99,4526.4C5745.99,4526 5745.74,4525.79 5745.23,4525.79L5744.72,4525.79L5744.72,4527.11Z" style="fill-rule:nonzero;"/>
        </g>
    </g>
</svg>
