<?xml version="1.0" encoding="UTF-8" standalone="no"?>
<!DOCTYPE svg PUBLIC "-//W3C//DTD SVG 1.1//EN" "http://www.w3.org/Graphics/SVG/1.1/DTD/svg11.dtd">
<svg id="svg-brand" width="100%" height="100%" viewBox="0 0 1289 178" version="1.1" xmlns="http://www.w3.org/2000/svg" xmlns:xlink="http://www.w3.org/1999/xlink" xml:space="preserve" xmlns:serif="http://www.serif.com/" style="fill-rule:evenodd;clip-rule:evenodd;stroke-linejoin:round;stroke-miterlimit:2;">
    <g transform="matrix(1,0,0,1,-2654.69,-413.673)">
        <g transform="matrix(1.47037,0,0,1,2523.11,83.6279)">
            <g>
                <g transform="matrix(0.852529,0,0,1.25353,-1210.13,-35.5863)">
                    <rect x="1524.43" y="302.291" width="33.773" height="102.813" style="fill-rule:nonzero;"/>
                </g>
                <g transform="matrix(0.852529,0,0,1.25353,-1210.13,-35.5863)">
                    <path d="M1597.95,406.299C1593.47,406.299 1588.94,405.85 1584.36,404.954C1579.77,404.057 1575.64,402.812 1571.95,401.218L1576.29,382.389C1578.58,383.584 1581.72,384.63 1585.7,385.527C1589.69,386.324 1593.22,386.723 1596.31,386.723C1601.29,386.723 1603.78,385.378 1603.78,382.688C1603.78,381.393 1602.99,380.446 1601.39,379.848C1599.9,379.251 1597.9,378.753 1595.41,378.354C1593.02,377.856 1590.43,377.258 1587.64,376.561C1584.85,375.764 1582.21,374.618 1579.72,373.124C1577.33,371.53 1575.34,369.288 1573.75,366.399C1572.25,363.51 1571.5,359.724 1571.5,355.042C1571.5,347.172 1574.59,340.895 1580.77,336.213C1587.05,331.531 1595.61,329.189 1606.47,329.189C1610.66,329.189 1614.54,329.488 1618.13,330.086C1621.81,330.684 1625.3,331.929 1628.59,333.822L1625.45,352.053C1620.17,349.861 1614.64,348.766 1608.86,348.766C1605.18,348.766 1602.49,349.064 1600.79,349.662C1599.2,350.26 1598.4,351.256 1598.4,352.651C1598.4,353.747 1599.2,354.594 1600.79,355.191C1602.39,355.789 1604.43,356.387 1606.92,356.985C1609.51,357.483 1612.2,358.23 1614.99,359.226C1617.78,360.123 1620.42,361.418 1622.91,363.112C1625.5,364.805 1627.59,367.097 1629.19,369.986C1630.78,372.775 1631.58,376.411 1631.58,380.895C1631.58,388.864 1628.64,395.091 1622.76,399.574C1616.88,404.057 1608.61,406.299 1597.95,406.299Z" style="fill-rule:nonzero;"/>
                </g>
                <g transform="matrix(0.852529,0,0,1.25353,-1210.13,-35.5863)">
                    <path d="M1699.61,395.678C1693.1,402.258 1684.29,406.299 1674.6,406.299C1654.57,406.299 1638.3,389.023 1638.3,367.744C1638.3,346.465 1654.57,329.189 1674.6,329.189C1684.4,329.189 1693.3,333.323 1699.83,340.036L1699.87,330.235L1730.95,330.235L1730.95,405.103L1699.57,405.103L1699.61,395.678ZM1684.78,382.688C1688.86,382.688 1692.35,381.243 1695.24,378.354C1698.13,375.365 1699.57,371.729 1699.57,367.445C1699.57,363.161 1698.13,359.675 1695.24,356.985C1692.35,354.195 1688.86,352.8 1684.78,352.8C1680.49,352.8 1676.91,354.245 1674.02,357.134C1671.13,360.023 1669.68,363.56 1669.68,367.744C1669.68,371.928 1671.13,375.465 1674.02,378.354C1676.91,381.243 1680.49,382.688 1684.78,382.688Z"/>
                </g>
                <g transform="matrix(0.852529,0,0,1.25353,-1121.59,-35.5863)">
                    <path d="M1699.61,395.678C1693.1,402.258 1684.29,406.299 1674.6,406.299C1654.57,406.299 1638.3,389.023 1638.3,367.744C1638.3,346.465 1654.57,329.189 1674.6,329.189C1684.4,329.189 1693.3,333.323 1699.83,340.036L1699.87,330.235L1730.95,330.235L1731.21,433.347L1699.83,433.347L1699.61,395.678ZM1684.78,382.688C1688.86,382.688 1692.35,381.243 1695.24,378.354C1698.13,375.365 1699.57,371.729 1699.57,367.445C1699.57,363.161 1698.13,359.675 1695.24,356.985C1692.35,354.195 1688.86,352.8 1684.78,352.8C1680.49,352.8 1676.91,354.245 1674.02,357.134C1671.13,360.023 1669.68,363.56 1669.68,367.744C1669.68,371.928 1671.13,375.465 1674.02,378.354C1676.91,381.243 1680.49,382.688 1684.78,382.688Z"/>
                </g>
                <g transform="matrix(0.852529,0,0,1.25353,-1210.13,-35.5863)">
                    <path d="M1889.36,406.299C1876.7,406.299 1866.79,403.111 1859.62,396.735C1852.55,390.259 1849.01,381.343 1849.01,369.986L1849.01,330.235L1879.79,330.235L1879.79,371.331C1879.79,375.316 1880.64,378.254 1882.33,380.147C1884.13,382.04 1886.52,382.987 1889.51,382.987C1892.39,382.987 1894.64,382.04 1896.23,380.147C1897.92,378.254 1898.77,375.316 1898.77,371.331L1898.77,330.235L1928.96,330.235L1928.96,369.986C1928.96,381.442 1925.47,390.359 1918.5,396.735C1911.62,403.111 1901.91,406.299 1889.36,406.299Z" style="fill-rule:nonzero;"/>
                </g>
                <g transform="matrix(0.852529,0,0,1.25353,-1210.13,-35.5863)">
                    <path d="M2013.24,369.687L1971.1,369.687C1973.11,381.729 1990.17,389.941 2008.76,381.193L2012.34,400.471C2008.66,402.364 2004.62,403.808 2000.24,404.804C1995.95,405.801 1991.02,406.299 1985.44,406.299C1975.38,406.299 1966.91,404.655 1960.04,401.367C1953.27,398.08 1948.13,393.547 1944.65,387.769C1941.16,381.99 1939.42,375.316 1939.42,367.744C1939.42,344.478 1958.28,329.921 1977.52,329.839C1996.9,329.757 2013.24,343.597 2013.24,369.687ZM1990.79,358.29C1991.06,355.093 1990.58,352.568 1989.34,350.714C1988.13,348.763 1986.37,347.49 1984.09,346.896C1981.49,346.221 1979.26,346.221 1976.66,346.896C1974.37,347.49 1972.62,348.763 1971.4,350.714C1970.17,352.568 1969.68,355.093 1969.96,358.29L1990.79,358.29Z"/>
                </g>
            </g>
            <g transform="matrix(1,0,0,1,-6.80101,0)">
                <g transform="matrix(0.852529,0,0,1.25353,-745.796,-222.91)">
                    <path d="M1524.43,554.54L1524.43,451.728L1555.51,451.728L1581.22,501.639L1606.32,451.728L1637.41,451.728L1637.41,554.54L1606.32,554.54L1606.32,500.743L1587.34,536.608L1574.64,536.608L1555.51,500.743L1555.51,554.54L1524.43,554.54Z" style="fill-rule:nonzero;"/>
                </g>
                <g transform="matrix(0.852529,0,0,1.25353,-745.796,-222.91)">
                    <path d="M1680.74,555.736C1674.07,555.736 1668.64,554.54 1664.45,552.149C1660.37,549.758 1657.38,546.52 1655.49,542.436C1653.6,538.351 1652.65,533.768 1652.65,528.688L1652.65,479.672L1684.18,479.672L1684.18,524.354C1684.18,526.645 1684.83,528.438 1686.12,529.734C1687.52,530.929 1689.16,531.527 1691.05,531.527C1693.05,531.527 1695.09,530.929 1697.18,529.734L1698.82,550.505C1696.63,552.199 1693.79,553.494 1690.31,554.391C1686.82,555.287 1683.63,555.736 1680.74,555.736ZM1668.49,471.453C1663.91,471.453 1659.97,470.009 1656.68,467.12C1653.39,464.131 1651.75,460.495 1651.75,456.211C1651.75,453.222 1652.55,450.632 1654.14,448.44C1655.74,446.149 1657.83,444.355 1660.42,443.06C1663.01,441.765 1665.7,441.118 1668.49,441.118C1671.58,441.118 1674.37,441.815 1676.86,443.21C1679.45,444.604 1681.49,446.447 1682.98,448.739C1684.58,451.03 1685.38,453.521 1685.38,456.211C1685.38,459.199 1684.53,461.839 1682.83,464.131C1681.24,466.422 1679.15,468.215 1676.56,469.511C1674.07,470.806 1671.38,471.453 1668.49,471.453Z" style="fill-rule:nonzero;"/>
                </g>
                <g transform="matrix(0.852529,0,0,1.25353,-744.436,-222.91)">
                    <path d="M1703.46,554.54L1703.46,538.55L1730.51,500.295L1704.5,500.295L1704.5,479.672L1766.67,479.672L1766.67,495.811L1740.97,533.918L1767.27,533.918L1767.27,554.54L1703.46,554.54Z" style="fill-rule:nonzero;"/>
                </g>
                <g transform="matrix(0.852529,0,0,1.25353,-627.866,-35.5863)">
                    <path d="M1699.61,395.678C1693.1,402.258 1684.29,406.299 1674.6,406.299C1654.57,406.299 1638.3,389.023 1638.3,367.744C1638.3,346.465 1654.57,329.189 1674.6,329.189C1684.4,329.189 1693.3,333.323 1699.83,340.036L1699.87,330.235L1730.95,330.235L1730.95,405.103L1699.57,405.103L1699.61,395.678ZM1684.78,382.688C1688.86,382.688 1692.35,381.243 1695.24,378.354C1698.13,375.365 1699.57,371.729 1699.57,367.445C1699.57,363.161 1698.13,359.675 1695.24,356.985C1692.35,354.195 1688.86,352.8 1684.78,352.8C1680.49,352.8 1676.91,354.245 1674.02,357.134C1671.13,360.023 1669.68,363.56 1669.68,367.744C1669.68,371.928 1671.13,375.465 1674.02,378.354C1676.91,381.243 1680.49,382.688 1684.78,382.688Z"/>
                </g>
                <g transform="matrix(0.852529,0,0,1.25353,-744.436,-222.91)">
                    <path d="M1995.01,555.736C1987.93,555.736 1982.16,554.54 1977.67,552.149C1973.29,549.758 1970.1,546.52 1968.11,542.436C1966.12,538.351 1965.12,533.768 1965.12,528.688L1965.12,453.073L1996.65,448.44L1996.65,524.354C1996.65,526.645 1997.4,528.438 1998.89,529.734C2000.39,530.929 2002.33,531.527 2004.72,531.527C2007.11,531.527 2009.5,530.929 2011.89,529.734L2014.14,550.505C2011.75,552.199 2008.71,553.494 2005.02,554.391C2001.33,555.287 1998,555.736 1995.01,555.736Z" style="fill-rule:nonzero;"/>
                </g>
                <g transform="matrix(0.852529,0,0,1.25353,-796.033,-36.0514)">
                    <path d="M2013.24,369.687L1971.1,369.687C1973.11,381.729 1990.17,389.941 2008.76,381.193L2012.34,400.471C2008.66,402.364 2004.62,403.808 2000.24,404.804C1995.95,405.801 1991.02,406.299 1985.44,406.299C1975.38,406.299 1966.91,404.655 1960.04,401.367C1953.27,398.08 1948.13,393.547 1944.65,387.769C1941.16,381.99 1939.42,375.316 1939.42,367.744C1939.42,344.478 1958.28,329.921 1977.52,329.839C1996.9,329.757 2013.24,343.597 2013.24,369.687ZM1990.79,358.29C1991.06,355.093 1990.58,352.568 1989.34,350.714C1988.13,348.763 1986.37,347.49 1984.09,346.896C1981.49,346.221 1979.26,346.221 1976.66,346.896C1974.37,347.49 1972.62,348.763 1971.4,350.714C1970.17,352.568 1969.68,355.093 1969.96,358.29L1990.79,358.29Z"/>
                </g>
            </g>
        </g>
    </g>
</svg>
